<svg width="48" height="58" viewBox="0 0 48 58" fill="none" xmlns="http://www.w3.org/2000/svg">
<g id="&#240;&#159;&#166;&#134; icon &#34;facebook&#34;">
<path id="Vector" d="M47.998 28.9614C47.998 12.9651 37.2535 0 23.999 0C10.7444 0 0 12.9651 0 28.9614C0 43.4131 8.77636 55.3935 20.2488 57.5656V37.3312H14.1566V28.959H20.2488V22.5802C20.2488 15.3206 23.833 11.3118 29.3132 11.3118C31.9393 11.3118 34.6854 11.8766 34.6854 11.8766V19.0035H31.6613C28.6812 19.0035 27.7512 21.2359 27.7512 23.5263V28.9614H34.4074L33.3434 37.3337H27.7512V57.568C39.2236 55.3959 48 43.4156 48 28.9614H47.998Z" fill="black"/>
</g>
</svg>
