<svg width="52" height="57" viewBox="0 0 52 57" fill="none" xmlns="http://www.w3.org/2000/svg">
<g id="&#240;&#159;&#166;&#134; icon &#34;Instagram&#34;">
<path id="Vector" d="M26.0058 13.8293C18.6278 13.8293 12.6766 20.3275 12.6766 28.3838C12.6766 36.4401 18.6278 42.9383 26.0058 42.9383C33.3838 42.9383 39.335 36.4401 39.335 28.3838C39.335 20.3275 33.3838 13.8293 26.0058 13.8293ZM26.0058 37.8461C21.2379 37.8461 17.3401 33.6027 17.3401 28.3838C17.3401 23.165 21.2263 18.9215 26.0058 18.9215C30.7853 18.9215 34.6715 23.165 34.6715 28.3838C34.6715 33.6027 30.7737 37.8461 26.0058 37.8461V37.8461ZM42.9892 13.234C42.9892 15.1214 41.5971 16.6287 39.8802 16.6287C38.1517 16.6287 36.7712 15.1087 36.7712 13.234C36.7712 11.3592 38.1633 9.83917 39.8802 9.83917C41.5971 9.83917 42.9892 11.3592 42.9892 13.234ZM51.8173 16.6794C51.6201 12.1319 50.6688 8.10378 47.6178 4.785C44.5785 1.46622 40.8895 0.427515 36.7248 0.199507C32.4326 -0.0665023 19.5674 -0.0665023 15.2752 0.199507C11.1221 0.414848 7.43313 1.45355 4.38215 4.77233C1.33118 8.09111 0.391523 12.1192 0.182711 16.6667C-0.0609035 21.3536 -0.0609035 35.4014 0.182711 40.0882C0.379922 44.6357 1.33118 48.6638 4.38215 51.9826C7.43313 55.3014 11.1105 56.3401 15.2752 56.5681C19.5674 56.8341 32.4326 56.8341 36.7248 56.5681C40.8895 56.3528 44.5785 55.3141 47.6178 51.9826C50.6572 48.6638 51.6085 44.6357 51.8173 40.0882C52.0609 35.4014 52.0609 21.3662 51.8173 16.6794V16.6794ZM46.2722 45.117C45.3673 47.5998 43.6156 49.5125 41.3303 50.5132C37.9081 51.9953 29.7876 51.6533 26.0058 51.6533C22.224 51.6533 14.0919 51.9826 10.6813 50.5132C8.40758 49.5252 6.65588 47.6125 5.73943 45.117C4.38215 41.3803 4.69537 32.5133 4.69537 28.3838C4.69537 24.2543 4.39375 15.3747 5.73943 11.6506C6.64428 9.16781 8.39598 7.25508 10.6813 6.25438C14.1035 4.77233 22.224 5.11434 26.0058 5.11434C29.7876 5.11434 37.9197 4.785 41.3303 6.25438C43.604 7.24241 45.3557 9.15515 46.2722 11.6506C47.6294 15.3874 47.3162 24.2543 47.3162 28.3838C47.3162 32.5133 47.6294 41.3929 46.2722 45.117Z" fill="black"/>
</g>
</svg>
