<svg width="51" height="63" viewBox="0 0 51 63" fill="none" xmlns="http://www.w3.org/2000/svg">
<g id="&#240;&#159;&#166;&#134; icon &#34;whatsapp&#34;">
<path id="Vector" d="M37.179 37.5497C36.5399 37.1522 33.4273 35.2862 32.8456 35.0199C32.2639 34.7653 31.8415 34.6322 31.4176 35.4174C31.0032 36.183 29.7824 37.9354 29.4095 38.4465C29.0365 38.9575 28.67 38.9967 28.0404 38.6501C27.4013 38.2526 25.3597 37.4361 22.9357 34.7653C21.0423 32.6957 19.7816 30.1463 19.4071 29.3611C19.0342 28.5857 19.3657 28.1471 19.6812 27.7594C19.9713 27.403 20.3203 26.8626 20.6438 26.3927C20.9514 25.9227 21.0502 25.6075 21.275 25.0984C21.4822 24.5482 21.3754 24.1194 21.2176 23.7317C21.0598 23.344 19.7896 19.5003 19.2589 17.9691C18.7521 16.4496 18.2213 16.6435 17.8309 16.6435C17.4659 16.6024 17.042 16.6024 16.6196 16.6024C16.1973 16.6024 15.5072 16.7962 14.9255 17.5403C14.3437 18.3255 12.7006 20.2013 12.7006 23.996C12.7006 27.8005 14.9749 31.4817 15.2904 32.0319C15.614 32.541 19.7641 40.3732 26.1311 43.7391C27.65 44.5243 28.8293 44.9942 29.7505 45.3819C31.2694 45.9733 32.6559 45.891 33.7508 45.6972C34.9621 45.4524 37.5025 43.8096 38.0348 41.9749C38.5751 40.1285 38.5751 38.5992 38.4173 38.2526C38.2596 37.8963 37.8452 37.7024 37.2061 37.3558L37.179 37.5497ZM25.6323 56.7837H25.5988C21.8296 56.7837 18.1034 55.5286 14.849 53.1828L14.0856 52.6228L6.11681 55.1722L8.25881 45.6463L7.74403 44.6672C5.64347 40.5573 4.52306 35.8148 4.52306 30.9412C4.52306 16.7257 13.9947 5.13011 25.6482 5.13011C31.2933 5.13011 36.5893 7.83223 40.5737 12.7274C44.5581 17.5814 46.7574 24.088 46.7574 30.9824C46.7415 45.1881 37.2778 56.7837 25.6402 56.7837H25.6323ZM43.6034 9.00511C38.7552 3.25234 32.3802 0 25.5988 0C11.6121 0 0.223125 13.9316 0.215156 31.0528C0.215156 36.5197 1.377 41.8535 3.60187 46.5744L0 62.6579L13.464 58.3443C17.1743 60.8016 21.3499 62.1174 25.6004 62.1272H25.6084C39.6031 62.1272 50.992 48.1957 51 31.0626C51 22.7722 48.3687 14.9694 43.5715 9.10497L43.6034 9.00511Z" fill="black"/>
</g>
</svg>
