<svg width="436" height="476" viewBox="0 0 436 476" fill="none" xmlns="http://www.w3.org/2000/svg">
<g clip-path="url(#clip0_99_67)">
<path d="M310.837 15.324C315.116 15.2194 319.016 18.1624 320.99 21.8388C322.964 25.5153 323.323 29.8019 323.223 33.9444C323.124 38.0869 322.607 42.2358 322.984 46.3633C323.786 55.144 328.863 63.4696 336.417 68.3921C333.57 68.6058 330.776 67.3291 328.625 65.5108C326.474 63.6926 324.864 61.3631 323.28 59.0629C321.939 57.1164 320.592 55.1568 319.629 53.011C318.22 49.8672 317.684 46.4323 317.177 43.0404C315.93 34.6893 314.78 26.3246 313.727 17.9484" fill="#2F2E41"/>
<path d="M238.345 465.725L252.785 465.724L259.654 411.806L238.342 411.807L238.345 465.725Z" fill="#FFB6B6"/>
<path d="M287.817 465.408C288.267 466.141 288.504 468.507 288.504 469.359C288.504 471.98 286.31 474.104 283.603 474.104H238.885C237.038 474.104 235.541 472.655 235.541 470.867V469.065C235.541 469.065 233.329 463.648 237.883 456.972C237.883 456.972 243.544 462.199 252.002 454.011L254.497 449.637L272.552 462.42L282.56 463.612C284.75 463.873 286.691 463.572 287.817 465.408Z" fill="#2F2E41"/>
<path d="M300.66 455.546L314.697 458.825L334.443 407.972L313.725 403.133L300.66 455.546Z" fill="#FFB6B6"/>
<path d="M348.829 466.474C349.088 467.289 348.746 469.643 348.539 470.472C347.904 473.019 345.256 474.585 342.625 473.97L299.155 463.814C297.36 463.394 296.256 461.646 296.689 459.908L297.126 458.156C297.126 458.156 296.288 452.388 302.334 446.932C302.334 446.932 306.569 453.3 316.776 447.261L320.261 443.576L334.714 460.103L344.154 463.535C346.219 464.286 348.179 464.434 348.829 466.474Z" fill="#2F2E41"/>
<path d="M384.402 196.6C381.712 194.487 379.737 191.962 378.633 189.472L351.689 170.915L361.186 158.762L387.495 178.895C390.24 179.427 393.2 180.776 395.89 182.888C402.037 187.714 404.448 194.695 401.275 198.482C398.103 202.268 390.549 201.426 384.402 196.6Z" fill="#FFB6B6"/>
<path d="M379.433 169.269L378.174 171.761L371.647 184.658L369.717 188.465L350.729 171.959L335.461 158.692L299.572 127.503C297.083 125.339 295.866 122.403 295.866 119.479C295.866 115.981 297.606 112.51 300.965 110.402C303.044 109.094 305.512 108.499 307.98 108.704C313.807 109.19 325.546 110.231 338 111.668L342.285 123.676L340.185 134.465L334.471 132.829L339.676 137.053L379.433 169.269Z" fill="#55877F"/>
<path d="M265.908 156.538C268.675 156.553 274.478 192.837 270.151 198.297C266.602 202.776 331.653 198.297 331.653 198.297C325.538 197.093 328.289 158.33 334.861 156.538L295.61 144.9L265.908 156.538Z" fill="#FFB6B6"/>
<path d="M328.764 193.402H270.931C270.931 193.402 246.815 230.472 246.815 302.353L236.914 418.048L261.665 419.417L301.545 262.585L323.462 339.58L308.339 421.722H332.305L360.676 329.099L355.012 280.447C355.012 280.447 349.105 213.59 328.764 193.402Z" fill="#2F2E41"/>
<path d="M342.284 123.676L340.184 134.465L339.675 137.053L335.46 158.692L329.744 166.833C329.744 166.833 289.045 154.619 269.951 169.679L254.595 121.622L270.86 87.3931L283.589 80.5472L285.71 72.3323H312.675L316.826 80.5472L328.848 86.0239L337.999 111.668L342.284 123.676Z" fill="#55877F"/>
<path d="M334.097 84.6013C331.893 87.1889 329.268 89.0801 326.688 90.1289L307.304 116.063L294.826 106.773L315.833 81.4658C316.404 78.8134 317.821 75.9585 320.025 73.371C325.059 67.4597 332.29 65.1817 336.176 68.2829C340.062 71.384 339.131 78.69 334.097 84.6013Z" fill="#FFB6B6"/>
<path d="M281.842 87.8264C281.842 87.8264 261.315 76.9011 254.65 87.8264C248.963 97.148 244.021 144.248 242.692 157.874C242.459 160.266 243.055 162.658 244.388 164.684C248.334 170.687 257.092 171.421 262.045 166.165L325.575 98.7517L305.825 89.1921L271.967 123.334L281.842 87.8264Z" fill="#55877F"/>
<path d="M295.929 67.109C310.185 67.109 321.741 55.9218 321.741 42.1218C321.741 28.3217 310.185 17.1346 295.929 17.1346C281.674 17.1346 270.117 28.3217 270.117 42.1218C270.117 55.9218 281.674 67.109 295.929 67.109Z" fill="#FFB6B6"/>
<path d="M315.807 28.6169C311.782 31.2472 309.207 35.6552 308.553 42.2239C306.025 40.2807 305.651 36.7456 306.612 32.2226C304.854 36.8522 290.586 60.4143 289.645 67.8631C289.047 72.6076 291.007 77.39 294.017 81.1761C296.83 84.706 300.496 87.4768 304.25 90.0767C297.192 87.5811 291.311 82.0871 288.518 75.3309C284.479 65.5762 286.881 54.7209 290.056 44.5013C289.311 45.8582 288.243 48.3348 287.008 49.3027C285.42 50.5458 283.538 50.1567 282.264 51.7034C280.715 53.5823 280.421 56.2107 280.901 58.5734C281.391 60.9362 282.567 63.0996 283.724 65.2251C267.359 62.2464 262.493 44.1402 269.972 31.8051C265.188 40.1174 264.149 56.8559 270.237 64.3143C273.648 68.4989 278.588 71.7631 280.294 76.8302C281.489 80.3886 280.833 84.3549 279.186 87.7425C277.539 91.13 274.961 94.0147 272.236 96.6716C271.119 97.7628 269.972 98.8161 268.776 99.8409C267.455 98.538 265.212 99.1543 264.724 100.918C264.453 101.898 264.025 102.908 263.483 103.94C258.64 105.004 252.101 103.527 251.103 110.117C250.837 111.875 247.554 111.095 245.731 111.379C246.222 110.056 244.636 108.885 243.477 109.732C241.961 110.838 240.347 111.486 238.654 111.759C234.341 111.531 230.116 110.469 226.372 108.4C238.311 101.198 248.785 103.276 253.451 90.428C254.182 88.4182 254.417 84.2261 254.404 79.5103C254.375 68.8184 251.777 58.323 247.304 48.5472C246.758 47.3545 246.342 46.2022 246.163 45.194C244.859 37.916 246.888 27.9146 250.181 23.2081C253.475 18.5111 259.17 15.4746 265.041 15.3228C267.972 15.2373 269.717 16.4804 272.305 15.1425C275.069 13.7096 275.716 15.5884 277.588 13.1593C280.931 8.8228 286.626 6.58343 292.213 6.39364C297.8 6.20385 300.927 4.6947 306.005 6.96258C309.21 8.39542 312.901 16.4221 316.434 16.471C323.747 16.5722 325.15 22.5105 315.807 28.6169Z" fill="#2F2E41"/>
<path d="M305.064 90.6366C304.789 90.4468 304.524 90.2665 304.25 90.0768C304.466 90.1622 304.681 90.2381 304.897 90.3045L305.064 90.6366Z" fill="#2F2E41"/>
<path d="M430.927 192.21C426.853 187.555 420.902 184.885 414.6 184.885H389.827C383.318 184.885 377.243 187.7 373.16 192.608C369.077 197.516 367.533 203.862 368.921 210.019L374.327 233.983C373 237.274 372.264 240.853 372.264 244.599C372.264 260.741 385.782 273.827 402.456 273.827C419.131 273.827 432.648 260.741 432.648 244.599C432.648 241.419 432.117 238.361 431.146 235.494L435.707 209.005C436.743 202.987 435.001 196.865 430.927 192.21ZM402.456 215.372C393.672 215.372 385.766 219.007 380.249 224.804L376.55 208.407C375.668 204.496 376.649 200.466 379.242 197.349C381.835 194.231 385.693 192.443 389.827 192.443H414.6C418.603 192.443 422.382 194.139 424.969 197.096C427.557 200.052 428.663 203.94 428.005 207.762L425.007 225.174C419.478 219.162 411.426 215.372 402.456 215.372Z" fill="#3F3D56"/>
<path d="M152.229 410.883C149.035 407.232 144.369 405.139 139.426 405.139H120.001C114.896 405.139 110.133 407.346 106.931 411.195C103.73 415.044 102.519 420.02 103.608 424.848L107.847 443.639C106.806 446.22 106.229 449.026 106.229 451.964C106.229 464.621 116.829 474.883 129.904 474.883C142.979 474.883 153.579 464.621 153.579 451.964C153.579 449.47 153.162 447.072 152.401 444.824L155.978 424.053C156.79 419.333 155.424 414.533 152.229 410.883ZM129.904 429.045C123.016 429.045 116.817 431.895 112.49 436.441L109.589 423.583C108.898 420.517 109.667 417.357 111.701 414.912C113.734 412.468 116.759 411.066 120.001 411.066H139.426C142.565 411.066 145.529 412.395 147.558 414.714C149.587 417.032 150.454 420.081 149.938 423.078L147.588 436.731C143.251 432.017 136.938 429.045 129.904 429.045Z" fill="#3F3D56"/>
<path d="M274.828 17.8525L272.956 17.2909C273.236 10.9319 275.011 5.1426 278.486 0L280.358 0.561557L274.828 17.8525Z" fill="#55877F"/>
<path d="M274.839 15.6277L273.636 17.1258L258.871 6.02038L260.074 4.52222C266.592 6.74991 271.349 10.6038 274.839 15.6277Z" fill="#55877F"/>
<path d="M360.279 459.553C362.304 459.676 363.423 457.24 361.891 455.821L361.738 455.234C361.759 455.187 361.779 455.14 361.799 455.093C363.847 450.366 370.788 450.399 372.818 455.133C374.62 459.335 376.915 463.544 377.48 467.986C377.733 469.948 377.619 471.946 377.169 473.87C381.392 464.94 383.615 455.189 383.615 445.383C383.615 442.92 383.475 440.456 383.19 437.998C382.956 435.988 382.633 433.99 382.215 432.01C379.955 421.309 375.061 411.117 368.002 402.604C364.609 400.809 361.779 398.002 360.069 394.637C359.455 393.423 358.974 392.118 358.746 390.788C359.132 390.837 360.202 385.144 359.911 384.794C360.449 384.004 361.412 383.611 362 382.839C364.924 379.002 368.951 379.672 371.054 384.886C375.545 387.081 375.589 390.72 372.833 394.22C371.079 396.447 370.838 399.46 369.3 401.844C369.458 402.041 369.623 402.231 369.781 402.427C372.684 406.031 375.194 409.904 377.31 413.973C376.712 409.451 377.595 404.002 379.1 400.49C380.814 396.488 384.026 393.118 386.854 389.658C390.252 385.503 397.219 387.316 397.817 392.584C397.823 392.635 397.829 392.686 397.834 392.737C397.414 392.967 397.002 393.21 396.6 393.468C394.307 394.936 395.1 398.377 397.817 398.783L397.878 398.792C397.726 400.257 397.467 401.71 397.087 403.138C400.716 416.722 392.882 421.669 381.696 421.892C381.449 422.014 381.209 422.137 380.962 422.253C382.095 425.342 383 428.511 383.671 431.722C384.273 434.56 384.691 437.428 384.925 440.309C385.216 443.943 385.191 447.596 384.874 451.224L384.893 451.095C385.697 447.099 387.939 443.367 391.193 440.781C396.041 436.926 402.89 435.506 408.119 432.407C410.637 430.916 413.863 432.843 413.424 435.669L413.402 435.804C412.623 436.111 411.864 436.466 411.129 436.864C410.709 437.094 410.298 437.338 409.896 437.595C407.602 439.063 408.395 442.504 411.112 442.91L411.174 442.92C411.218 442.926 411.256 442.932 411.3 442.938C409.964 446.008 408.103 448.858 405.773 451.316C403.504 463.175 393.76 464.3 383.336 460.846H383.33C382.19 465.651 380.525 470.346 378.385 474.82H360.721C360.658 474.63 360.601 474.434 360.544 474.244C362.178 474.342 363.824 474.25 365.432 473.962C364.121 472.405 362.811 470.836 361.5 469.28C361.468 469.249 361.443 469.218 361.418 469.188C360.753 468.391 360.082 467.6 359.417 466.804L359.417 466.803C359.375 464.357 359.679 461.919 360.279 459.553Z" fill="#F2F2F2"/>
<path d="M0 474.871C0 475.497 0.519542 476 1.16651 476H412.16C412.807 476 413.326 475.497 413.326 474.871C413.326 474.245 412.807 473.742 412.16 473.742H1.16651C0.519542 473.742 0 474.245 0 474.871Z" fill="#CCCCCC"/>
</g>
<defs>
<clipPath id="clip0_99_67">
<rect width="436" height="476" fill="white"/>
</clipPath>
</defs>
</svg>
